<svg id="Capa_1" enable-background="new 0 0 512 512" height="512" viewBox="0 0 512 512" width="512" xmlns="http://www.w3.org/2000/svg"><path d="m409.78 129.834c-2.604.868-5.404-.533-6.398-3.092-16.48-42.437-57.714-72.52-105.975-72.52-65.461 0-117.333 55.161-113.447 120.367.183 3.063-2.255 5.696-5.32 5.546-18.793-.917-35.795 8.632-45.263 23.556 12.576 7.484 22.451 19.032 27.811 32.835.577 1.484 2.201 2.297 3.712 1.794 28.902-9.635 59.347 11.941 59.299 42.931 0 .089-.007.176-.007.265h208.951c43.093 0 78.792-34.585 78.857-77.678.081-53.42-52.399-90.612-102.22-74.004z" fill="#b4dbff"/><path d="m409.78 129.834c-2.604.868-5.404-.533-6.398-3.092-16.48-42.437-57.714-72.52-105.975-72.52-65.461 0-117.333 55.161-113.447 120.367.183 3.063-2.255 5.696-5.32 5.546-18.793-.917-35.795 8.632-45.263 23.556 12.576 7.484 22.451 19.032 27.811 32.835.577 1.484 2.201 2.297 3.712 1.794 28.902-9.635 59.347 11.941 59.299 42.931 0 .089-.007.176-.007.265h208.951c43.093 0 78.792-34.585 78.857-77.678.081-53.42-52.399-90.612-102.22-74.004z" fill="#b4dbff"/><path d="m201.228 237.34c-3.405.852-6.959-.774-8.399-3.975-4.334-9.634-10.915-18.037-19.074-24.546-4.16-3.319-4.648-9.509-.941-13.327 9.738-10.029 23.532-16.009 38.48-15.37 3.194.136 5.802-2.559 5.618-5.75-3.435-59.518 39.581-110.61 96.94-118.95-5.371-.779-10.859-1.199-16.446-1.199-65.461 0-117.333 55.161-113.447 120.367.183 3.063-2.255 5.696-5.32 5.546-18.793-.917-35.795 8.632-45.263 23.556 12.576 7.484 22.451 19.032 27.811 32.835.576 1.484 2.201 2.297 3.712 1.794 28.902-9.635 59.347 11.941 59.299 42.931 0 .089-.007.176-.007.265h32.966c.001-.089.007-.176.007-.265.046-29.791-28.085-50.881-55.936-43.912z" fill="#8bcaff"/><g fill="#b4dbff"><path d="m42.049 371.16c-3.924-1.676-5.746-6.216-4.069-10.14l5.417-12.678c1.677-3.926 6.216-5.747 10.141-4.069 3.924 1.676 5.746 6.216 4.069 10.14l-5.417 12.678c-1.677 3.926-6.219 5.746-10.141 4.069z"/><path d="m23.68 414.157c-3.924-1.676-5.746-6.216-4.069-10.14l5.417-12.678c1.677-3.926 6.216-5.748 10.141-4.069 3.924 1.676 5.746 6.216 4.069 10.14l-5.417 12.678c-1.677 3.926-6.219 5.746-10.141 4.069z"/><path d="m5.31 457.154c-3.924-1.676-5.746-6.216-4.069-10.14l5.417-12.678c1.676-3.925 6.215-5.747 10.141-4.069 3.924 1.676 5.746 6.216 4.069 10.14l-5.417 12.678c-1.677 3.926-6.219 5.746-10.141 4.069z"/><path d="m99.741 371.16c-3.924-1.676-5.746-6.216-4.069-10.14l5.417-12.678c1.677-3.926 6.216-5.747 10.141-4.069 3.924 1.676 5.746 6.216 4.069 10.14l-5.416 12.678c-1.678 3.926-6.22 5.746-10.142 4.069z"/><path d="m81.372 414.157c-3.924-1.676-5.746-6.216-4.069-10.14l5.416-12.678c1.677-3.926 6.216-5.748 10.141-4.069 3.924 1.676 5.746 6.216 4.069 10.14l-5.417 12.678c-1.676 3.926-6.218 5.746-10.14 4.069z"/><path d="m63.003 457.154c-3.924-1.676-5.746-6.216-4.069-10.14l5.417-12.678c1.677-3.925 6.215-5.747 10.141-4.069 3.924 1.676 5.746 6.216 4.069 10.14l-5.417 12.678c-1.677 3.926-6.22 5.746-10.141 4.069z"/><path d="m157.434 371.16c-3.924-1.676-5.746-6.216-4.069-10.14l5.417-12.678c1.677-3.926 6.215-5.747 10.141-4.069 3.924 1.676 5.746 6.216 4.069 10.14l-5.417 12.678c-1.677 3.926-6.219 5.746-10.141 4.069z"/><path d="m139.064 414.157c-3.924-1.676-5.746-6.216-4.069-10.14l5.417-12.678c1.677-3.926 6.216-5.748 10.141-4.069 3.924 1.676 5.746 6.216 4.069 10.14l-5.417 12.678c-1.677 3.926-6.219 5.746-10.141 4.069z"/><path d="m120.695 457.154c-3.924-1.676-5.746-6.216-4.069-10.14l5.417-12.678c1.676-3.925 6.215-5.747 10.141-4.069 3.924 1.676 5.746 6.216 4.069 10.14l-5.417 12.678c-1.677 3.926-6.219 5.746-10.141 4.069z"/><path d="m215.126 371.16c-3.924-1.676-5.746-6.216-4.069-10.14l5.417-12.678c1.677-3.926 6.216-5.747 10.141-4.069 3.924 1.676 5.746 6.216 4.069 10.14l-5.417 12.678c-1.677 3.926-6.219 5.746-10.141 4.069z"/><path d="m196.757 414.157c-3.924-1.676-5.746-6.216-4.069-10.14l5.417-12.678c1.677-3.926 6.216-5.748 10.141-4.069 3.924 1.676 5.746 6.216 4.069 10.14l-5.417 12.678c-1.677 3.926-6.219 5.746-10.141 4.069z"/><path d="m178.387 457.154c-3.924-1.676-5.746-6.216-4.069-10.14l5.417-12.678c1.676-3.925 6.215-5.747 10.141-4.069 3.924 1.676 5.746 6.216 4.069 10.14l-5.417 12.678c-1.677 3.926-6.219 5.746-10.141 4.069z"/><path d="m283.295 346.008c-3.924-1.676-5.746-6.216-4.069-10.14l5.417-12.678c1.676-3.926 6.215-5.749 10.141-4.069 3.924 1.676 5.746 6.216 4.069 10.14l-5.417 12.678c-1.677 3.926-6.219 5.746-10.141 4.069z"/><path d="m264.926 389.005c-3.924-1.676-5.746-6.216-4.069-10.14l5.417-12.678c1.677-3.925 6.215-5.747 10.141-4.069 3.924 1.676 5.746 6.216 4.069 10.14l-5.417 12.678c-1.677 3.926-6.219 5.746-10.141 4.069z"/><path d="m246.556 432.002c-3.924-1.676-5.746-6.216-4.069-10.14l5.417-12.678c1.677-3.925 6.216-5.749 10.141-4.069 3.924 1.676 5.746 6.216 4.069 10.14l-5.417 12.678c-1.677 3.926-6.219 5.746-10.141 4.069z"/><path d="m340.987 346.008c-3.924-1.676-5.746-6.216-4.069-10.14l5.417-12.678c1.677-3.926 6.215-5.749 10.141-4.069 3.924 1.676 5.746 6.216 4.069 10.14l-5.417 12.678c-1.677 3.926-6.219 5.746-10.141 4.069z"/><path d="m322.618 389.005c-3.924-1.676-5.746-6.216-4.069-10.14l5.417-12.678c1.677-3.925 6.215-5.747 10.141-4.069 3.924 1.676 5.746 6.216 4.069 10.14l-5.417 12.678c-1.677 3.926-6.219 5.746-10.141 4.069z"/><path d="m304.249 432.002c-3.924-1.676-5.746-6.216-4.069-10.14l5.417-12.678c1.677-3.925 6.216-5.749 10.141-4.069 3.924 1.676 5.746 6.216 4.069 10.14l-5.417 12.678c-1.677 3.926-6.219 5.746-10.141 4.069z"/><path d="m398.68 346.008c-3.924-1.676-5.746-6.216-4.069-10.14l5.417-12.678c1.676-3.926 6.215-5.749 10.141-4.069 3.924 1.676 5.746 6.216 4.069 10.14l-5.417 12.678c-1.677 3.926-6.219 5.746-10.141 4.069z"/><path d="m380.31 389.005c-3.924-1.676-5.746-6.216-4.069-10.14l5.417-12.678c1.677-3.925 6.216-5.747 10.141-4.069 3.924 1.676 5.746 6.216 4.069 10.14l-5.417 12.678c-1.677 3.926-6.219 5.746-10.141 4.069z"/><path d="m361.941 432.002c-3.924-1.676-5.746-6.216-4.069-10.14l5.417-12.678c1.677-3.925 6.216-5.749 10.141-4.069 3.924 1.676 5.746 6.216 4.069 10.14l-5.417 12.678c-1.677 3.926-6.219 5.746-10.141 4.069z"/><path d="m456.372 346.008c-3.924-1.676-5.746-6.216-4.069-10.14l5.417-12.678c1.676-3.926 6.215-5.749 10.141-4.069 3.924 1.676 5.746 6.216 4.069 10.14l-5.417 12.678c-1.677 3.926-6.219 5.746-10.141 4.069z"/><path d="m438.003 389.005c-3.924-1.676-5.746-6.216-4.069-10.14l5.417-12.678c1.676-3.925 6.215-5.747 10.141-4.069 3.924 1.676 5.746 6.216 4.069 10.14l-5.417 12.678c-1.677 3.926-6.219 5.746-10.141 4.069z"/><path d="m419.633 432.002c-3.924-1.676-5.746-6.216-4.069-10.14l5.417-12.678c1.677-3.925 6.216-5.749 10.141-4.069 3.924 1.676 5.746 6.216 4.069 10.14l-5.417 12.678c-1.677 3.926-6.219 5.746-10.141 4.069z"/></g><path d="m165.739 237.872c-1.519.506-3.151-.311-3.731-1.803-9.609-24.744-33.651-42.284-61.791-42.284-38.168 0-68.413 32.163-66.147 70.182.106 1.786-1.315 3.321-3.102 3.234-16.861-.823-31.262 12.795-30.964 30.066.28 16.208 13.857 29.045 30.068 29.045h149.289c25.126 0 45.941-20.166 45.979-45.292.048-31.146-30.552-52.831-59.601-43.148z" fill="#d9edff"/><path d="m30.223 297.267c-.298-17.271 14.103-30.889 30.964-30.066 1.787.087 3.208-1.448 3.102-3.234-1.957-32.844 20.354-61.297 51.069-68.441-4.863-1.137-9.931-1.741-15.14-1.741-38.168 0-68.413 32.163-66.147 70.182.107 1.786-1.315 3.321-3.102 3.234-16.861-.823-31.262 12.795-30.964 30.066.28 16.208 13.857 29.045 30.068 29.045h30.219c-16.212.001-29.789-12.836-30.069-29.045z" fill="#b4dbff"/></svg>