<svg id="Capa_1" enable-background="new 0 0 512 512" height="512" viewBox="0 0 512 512" width="512" xmlns="http://www.w3.org/2000/svg"><g><path d="m272.68 67.343h-15.578c-12.378-38.337-48.352-66.071-90.808-66.071-51.842 0-94.025 41.346-95.378 92.861h-14.321c-27.052 0-48.982 21.93-48.982 48.982 0 27.052 21.93 48.982 48.982 48.982h216.085c34.45 0 62.377-27.927 62.377-62.377-.001-34.45-27.928-62.377-62.377-62.377z" fill="#407093"/><path d="m190.781 4.453c-16.11 4.255-30.554 12.632-42.133 23.935-17.195 16.775-28.078 39.985-28.753 65.751h-14.32c-27.055 0-48.976 21.931-48.976 48.976 0 13.533 5.483 25.777 14.341 34.635 8.858 8.869 21.112 14.351 34.635 14.351h-48.976c-13.522 0-25.777-5.483-34.635-14.351-8.868-8.858-14.351-21.102-14.351-34.635 0-27.045 21.931-48.976 48.986-48.976h14.32c.675-25.766 11.559-48.976 28.753-65.751 17.195-16.785 40.7-27.117 66.62-27.117 8.47 0 16.674 1.105 24.489 3.182z" fill="#365e7d"/><path d="m449.623 149.573h-15.578c-12.378-38.337-48.352-66.071-90.808-66.071-51.842 0-94.025 41.346-95.378 92.861h-14.321c-27.052 0-48.982 21.93-48.982 48.982 0 27.052 21.93 48.982 48.982 48.982h216.085c34.45 0 62.377-27.927 62.377-62.377 0-34.449-27.927-62.377-62.377-62.377z" fill="#365e7d"/><path d="m367.725 86.683c-16.11 4.255-30.554 12.632-42.133 23.935-17.195 16.775-28.078 39.985-28.753 65.751h-14.32c-27.055 0-48.976 21.931-48.976 48.976 0 13.533 5.483 25.777 14.341 34.635 8.858 8.869 21.112 14.351 34.635 14.351h-48.976c-13.522 0-25.777-5.483-34.635-14.351-8.868-8.858-14.351-21.102-14.351-34.635 0-27.045 21.931-48.976 48.986-48.976h14.32c.675-25.766 11.559-48.976 28.753-65.751 17.195-16.785 40.7-27.117 66.62-27.117 8.47.001 16.674 1.106 24.489 3.182z" fill="#2b4d66"/><g fill="#bed8fb"><path d="m7.621 510.727c-.543 0-1.094-.058-1.645-.18-4.106-.904-6.7-4.966-5.795-9.071l63.521-288.279c.904-4.106 4.967-6.697 9.071-5.795 4.106.904 6.7 4.966 5.795 9.071l-63.522 288.278c-.783 3.554-3.931 5.976-7.425 5.976z"/><path d="m55.655 510.727c-.543 0-1.094-.058-1.645-.18-4.106-.904-6.7-4.966-5.795-9.071l63.521-288.279c.905-4.106 4.969-6.697 9.071-5.795 4.106.904 6.7 4.966 5.795 9.071l-63.521 288.278c-.783 3.554-3.931 5.976-7.426 5.976z"/><path d="m103.68 510.727c-.543 0-1.094-.058-1.645-.18-4.106-.904-6.7-4.966-5.795-9.071l63.521-288.279c.904-4.106 4.966-6.697 9.071-5.795 4.106.904 6.7 4.966 5.795 9.071l-63.521 288.279c-.784 3.553-3.932 5.975-7.426 5.975z"/><path d="m151.714 510.727c-.543 0-1.094-.058-1.646-.18-4.105-.904-6.7-4.966-5.795-9.071l44.925-203.861c.904-4.105 4.964-6.697 9.071-5.795 4.105.904 6.7 4.966 5.795 9.071l-44.924 203.861c-.783 3.553-3.931 5.975-7.426 5.975z"/><path d="m199.738 510.727c-.543 0-1.094-.058-1.646-.18-4.105-.905-6.7-4.966-5.795-9.071l44.926-203.861c.904-4.105 4.964-6.697 9.071-5.795 4.105.905 6.7 4.966 5.795 9.071l-44.926 203.861c-.782 3.553-3.93 5.975-7.425 5.975z"/><path d="m247.773 510.727c-.543 0-1.094-.058-1.646-.18-4.105-.904-6.7-4.966-5.795-9.071l44.925-203.861c.905-4.104 4.961-6.697 9.071-5.795 4.105.904 6.7 4.966 5.795 9.071l-44.925 203.861c-.782 3.553-3.93 5.975-7.425 5.975z"/><path d="m295.798 510.727c-.542 0-1.093-.058-1.645-.18-4.105-.904-6.7-4.966-5.795-9.071l44.925-203.861c.905-4.104 4.96-6.697 9.071-5.795 4.105.904 6.7 4.966 5.795 9.071l-44.925 203.861c-.783 3.553-3.932 5.975-7.426 5.975z"/><path d="m343.833 510.729c-.542 0-1.093-.058-1.645-.18-4.105-.905-6.7-4.966-5.795-9.071l44.926-203.861c.905-4.105 4.968-6.703 9.07-5.795 4.106.904 6.701 4.966 5.796 9.071l-44.926 203.862c-.783 3.552-3.931 5.974-7.426 5.974z"/><path d="m391.867 510.727c-.542 0-1.093-.058-1.644-.18-4.106-.904-6.701-4.965-5.796-9.071l44.915-203.861c.905-4.105 4.969-6.701 9.07-5.795 4.106.904 6.701 4.965 5.796 9.071l-44.915 203.861c-.783 3.553-3.932 5.975-7.426 5.975z"/><path d="m439.891 510.727c-.542 0-1.093-.058-1.645-.18-4.105-.904-6.7-4.966-5.795-9.071l44.925-203.861c.904-4.104 4.961-6.697 9.071-5.795 4.105.904 6.7 4.966 5.795 9.071l-44.925 203.861c-.783 3.553-3.931 5.975-7.426 5.975z"/></g></g></svg>