<svg id="Layer_1" enable-background="new 0 0 512 512" height="512" viewBox="0 0 512 512" width="512" xmlns="http://www.w3.org/2000/svg"><g><g fill="#ba7b58"><path d="m181.995 180.566-90.612-55.623c-3.532-2.169-8.149-1.061-10.315 2.468-2.167 3.53-1.062 8.148 2.468 10.315l29.523 18.123-17.782 17.781c-2.929 2.93-2.929 7.678 0 10.607 1.464 1.464 3.384 2.196 5.303 2.196s3.839-.732 5.303-2.196l20.319-20.32 47.944 29.431c1.224.752 2.579 1.109 3.917 1.109 2.521 0 4.983-1.271 6.399-3.577 2.167-3.529 1.062-8.147-2.467-10.314z"/><path d="m426.56 114.048c-2.839-3.016-7.585-3.158-10.602-.32l-82.62 77.769c-3.016 2.839-3.159 7.585-.32 10.602 1.476 1.567 3.467 2.359 5.462 2.359 1.844 0 3.691-.676 5.14-2.039l56.106-52.811 14.651 7.992c1.141.622 2.371.917 3.585.917 2.656 0 5.229-1.414 6.591-3.909 1.983-3.637.644-8.192-2.992-10.176l-10.342-5.641 15.022-14.14c3.014-2.84 3.157-7.586.319-10.603z"/></g><path d="m374.993 360.17c0 35.99-16.04 69.66-44 92.38-1.35 1.1-3.02 1.68-4.73 1.68-.39 0-.79-.03-1.19-.09l-9.35-1.5-154.72-24.79c-2.1-.34-3.97-1.56-5.12-3.35-12.35-19.18-18.87-41.43-18.87-64.33 0-37.44 17.95-73.15 48.02-95.53 1.3-.96 2.87-1.48 4.48-1.48h132.97c1.61 0 3.18.52 4.48 1.48 1.96 1.46 3.88 2.98 5.73 4.55v.01c26.61 22.48 42.3 55.97 42.3 90.97z" fill="#dff0f7"/><path d="m374.993 360.17c0 35.99-16.04 69.66-44 92.38-1.35 1.1-3.02 1.68-4.73 1.68-.39 0-.79-.03-1.19-.09l-9.35-1.5c61.386-93.945 17.65-182.08 16.97-183.44 26.61 22.48 42.3 55.97 42.3 90.97z" fill="#c5dbe8"/><path d="m347.673 219.04c0 50.55-41.13 91.67-91.67 91.67-5.47 0-10.83-.48-16.03-1.4-42.94-7.61-75.64-45.19-75.64-90.27 0-35.8 21.04-68.54 53.61-83.42.98-.45 2.04-.68 3.12-.68h69.88c1.07 0 2.13.23 3.11.68 3.51 1.61 6.89 3.42 10.13 5.42 26.74 16.56 43.49 46.06 43.49 78z" fill="#c5dbe8"/><path d="m347.673 219.04c0 50.55-41.13 91.67-91.67 91.67-5.47 0-10.83-.48-16.03-1.4 46.54-14.68 80.38-58.26 80.38-109.6 0-21.04-5.8-41.23-16.17-58.67 26.74 16.56 43.49 46.06 43.49 78z" fill="#b0c4d6"/><path d="m325.013 91.81c0 19.47-8.1 37.09-21.12 49.65-12.41 11.99-29.3 19.37-47.89 19.37-38.06 0-69.01-30.96-69.01-69.02 0-11.48 2.88-22.86 8.33-32.89 1.31-2.42 3.84-3.92 6.58-3.92l86.67-.11 21.43-.03h.01c2.74 0 5.26 1.49 6.58 3.9 5.51 10.08 8.42 21.51 8.42 33.05z" fill="#dff0f7"/><path d="m316.593 58.76c5.51 10.08 8.42 21.51 8.42 33.05 0 19.47-8.1 37.09-21.12 49.65 2.02-8.54 3.09-17.44 3.09-26.59 0-19.36-4.88-38.52-14.11-55.41-1.04-1.9-2.53-3.46-4.3-4.57l21.43-.03h.01c2.74 0 5.26 1.49 6.58 3.9z" fill="#c5dbe8"/><path d="m323.503 7.5v54.86c0 4.14-3.36 7.5-7.5 7.5h-120c-4.15 0-7.5-3.36-7.5-7.5v-54.86c0-4.14 3.35-7.5 7.5-7.5h120c4.14 0 7.5 3.36 7.5 7.5z" fill="#ba7b58"/><path d="m323.503 7.5v54.86c0 4.14-3.36 7.5-7.5 7.5h-21c4.14 0 7.5-3.36 7.5-7.5v-54.86c0-4.14-3.36-7.5-7.5-7.5h21c4.14 0 7.5 3.36 7.5 7.5z" fill="#9b5a46"/><path d="m341 54.858h-170c-4.142 0-7.5 3.357-7.5 7.5s3.358 7.5 7.5 7.5h170c4.143 0 7.5-3.357 7.5-7.5s-3.357-7.5-7.5-7.5z" fill="#9b5a46"/><g><path d="m453.5 484.5v20c0 4.14-3.36 7.5-7.5 7.5h-380c-4.14 0-7.5-3.36-7.5-7.5v-20c0-4.14 3.36-7.5 7.5-7.5h13.89c4.84 0 9.2-3.1 10.6-7.53 8.7-27.48 36.37-46.67 67.29-46.67 11.17 0 22.05 2.43 31.87 7.08 14.5-20.81 39.29-33.46 66.43-33.46 19.06 0 37.46 6.36 51.83 17.92 11.59 9.33 19.95 21.5 24.15 34.98 8.28-3.51 17.31-5.34 26.56-5.34 22.33 0 42.69 10.53 54.46 28.15 2.04 3.05 5.48 4.87 9.2 4.87h23.72c4.14 0 7.5 3.36 7.5 7.5z" fill="#dff0f7"/><path d="m453.5 474.5v15h-31.22c-11.26 0-21.69-5.56-27.91-14.87-7.47-11.19-21.17-18.15-35.75-18.15-8.55 0-16.77 2.3-23.75 6.65-4.28 2.66-9.61 3-14.19.89-4.58-2.1-7.8-6.37-8.56-11.35-3.83-24.94-27.93-43.75-56.04-43.75-21.6 0-41.02 10.8-50.68 28.18-1.98 3.56-5.33 6.17-9.27 7.21-3.95 1.05-8.14.44-11.63-1.68-7.89-4.8-17.13-7.33-26.72-7.33-21.22 0-40.07 12.73-45.84 30.96-4.4 13.9-17.28 23.24-32.05 23.24h-21.39v-15c0-4.14 3.36-7.5 7.5-7.5h13.89c4.84 0 9.2-3.1 10.6-7.53 8.7-27.48 36.37-46.67 67.29-46.67 11.17 0 22.05 2.43 31.87 7.08 14.5-20.81 39.29-33.46 66.43-33.46 19.06 0 37.46 6.36 51.83 17.92 11.59 9.33 19.95 21.5 24.15 34.98 8.28-3.51 17.31-5.34 26.56-5.34 22.33 0 42.69 10.53 54.46 28.15 2.04 3.05 5.48 4.87 9.2 4.87h23.72c4.14 0 7.5 3.36 7.5 7.5z" fill="#c5dbe8"/></g><g><circle cx="256.005" cy="108.044" fill="#f9ab6b" r="7.5"/><g fill="#889fb5"><circle cx="255.995" cy="199.933" r="7.5"/><circle cx="255.995" cy="249.244" r="7.5"/><circle cx="256.005" cy="350.683" r="7.5"/></g></g></g></svg>