<svg id="Capa_1" enableBackground="new 0 0 511.5 511.5" height="512" viewBox="0 0 511.5 511.5" width="512" xmlns="http://www.w3.org/2000/svg"><g><g><g fill="#d4e157"><path d="m351.064 352.277c62.178-35.898 118.906 17.952 118.906 17.952s18.272 76.053-43.906 111.952-176.064 15.048-176.064 15.048c72.138-67.053 36.612-106.586 101.064-144.952z"/><path d="m275.484 94.314c16.96 29.375 52.516 20.96 52.516 20.96s25.066-26.584 8.106-55.96-68.106-47.964-68.106-47.964c11.995 42.368-9.828 52.044 7.484 82.964z"/><path d="m108.621 61.056c19.987-19.987 4.955-47.382 4.955-47.382s-27.394-15.032-47.381 4.955-23.329 65.755-23.329 65.755c31.698-18.611 44.593-2.732 65.755-23.328z"/></g><g fill="#c0ca33"><path d="m274.56 470.581c36.971 3.96 107.299 7.122 151.504-18.4 32.098-18.531 42.756-47.763 45.557-71.71 2.498 21.968 2.627 73.891-45.557 101.71-62.178 35.898-176.064 15.048-176.064 15.048 10.112-9.399 18.107-18.258 24.56-26.648z"/><path d="m277.263 59.068c-2.676-4.78-4.597-9.149-5.938-13.239-1.749 17.131-7.161 28.267 4.159 48.484 16.96 29.375 52.516 20.96 52.516 20.96s11.933-12.659 13.76-30.158c-4.905 1.011-44.817 8.04-64.497-26.047z"/><path d="m108.621 31.056c-19.7 19.173-32.244 6.752-59.452 19.955-5.127 17.273-6.303 33.374-6.303 33.374 31.698-18.612 44.593-2.733 65.755-23.329 14.101-14.101 10.772-31.877 7.588-41.131-1.621 3.813-4.046 7.589-7.588 11.131z"/></g></g><g><path d="m322.968 495.75c-23.043 0-43.82-2.052-56.988-3.736 20.895-21.87 30.4-40.201 36.404-54.202l-13.785-5.912c-6.378 14.873-17.109 35.115-43.705 59.835l-10.95 10.178 14.706 2.692c1.37.251 34.021 6.144 74.318 6.144h.006c41.35 0 74.908-6.157 99.743-18.301l-6.59-13.476c-22.767 11.134-54.109 16.778-93.159 16.778z"/><path d="m468.115 358.927c-12.173-9.343-39.032-26.49-72.24-26.49-16.885 0-33.223 4.49-48.646 13.395-34.959 20.809-42.844 43.016-51.192 66.526-.699 1.97-1.408 3.966-2.143 5.991l14.102 5.115c.746-2.057 1.466-4.085 2.177-6.087 8.058-22.692 14.422-40.616 44.643-58.605 13.027-7.521 26.842-11.335 41.06-11.335 26.076 0 48.276 12.786 60.007 21.149-8.246 5.961-14.494 9.49-14.67 9.588l-13.718 7.92-40.79-23.003-7.369 13.065 33.069 18.649-29.07 16.783-30.588-17.33-7.395 13.051 22.912 12.981-30.213 17.443 7.5 12.99 30.213-17.443-.214 26.333 15 .122.285-35.156 29.069-16.783-.384 37.963 15 .151.473-46.826 13.564-7.831c.979-.547 7.299-4.136 15.592-10.098.449 3.896.827 8.837.827 14.443 0 23.404-6.387 55.659-36.811 76.415l8.453 12.392c35.835-24.447 43.357-61.787 43.357-88.806 0-11.979-1.521-21.227-2.286-25.121 15.115-13.114 30.973-31.485 33.716-52.387l-14.873-1.952c-2.145 16.341-15.413 31.529-28.417 42.788z"/><path d="m259.5 416.25c0-28.949-23.552-52.5-52.5-52.5h-91.299v15h91.299c20.678 0 37.5 16.822 37.5 37.5s-16.822 37.5-37.5 37.5-37.5-16.822-37.5-37.5c0-4.654.84-9.193 2.497-13.49l-13.994-5.397c-2.324 6.025-3.503 12.38-3.503 18.888 0 28.949 23.552 52.5 52.5 52.5s52.5-23.552 52.5-52.501z"/><path d="m0 363.75h100.701v15h-100.701z"/><path d="m209.997 199.74c-1.657-4.297-2.497-8.836-2.497-13.49 0-20.678 16.822-37.5 37.5-37.5s37.5 16.822 37.5 37.5-16.822 37.5-37.5 37.5h-91.299v15h91.299c28.948 0 52.5-23.551 52.5-52.5s-23.552-52.5-52.5-52.5-52.5 23.551-52.5 52.5c0 6.507 1.179 12.862 3.503 18.888z"/><path d="m0 223.75h138.701v15h-138.701z"/><path d="m381.5 217.25h-15c0 12.173 3.752 23.8 10.85 33.625l12.158-8.784c-5.238-7.252-8.008-15.842-8.008-24.841z"/><path d="m424 274.75c31.706 0 57.5-25.794 57.5-57.5 0-8.336-1.754-16.384-5.214-23.92l-13.633 6.259c2.553 5.559 3.847 11.501 3.847 17.662 0 23.435-19.065 42.5-42.5 42.5z"/><path d="m455.687 188.962 11.184-9.997c-10.915-12.21-26.541-19.214-42.87-19.214v15c12.063 0 23.612 5.179 31.686 14.211z"/><path d="m0 289.75h16.141v15h-16.141z"/><path d="m61.141 289.75h15v15h-15z"/><path d="m353.032 268.444 12.158-8.784c-8.956-12.397-13.69-27.062-13.69-42.409 0-39.977 32.523-72.5 72.5-72.5s72.5 32.523 72.5 72.5-32.523 72.5-72.5 72.5h-332.859v15h332.859c48.248 0 87.5-39.252 87.5-87.5s-39.252-87.5-87.5-87.5-87.5 39.252-87.5 87.5c0 18.521 5.717 36.223 16.532 51.193z"/><path d="m31.141 289.75h15v15h-15z"/><path d="m264.302 36.854c0 6.558-.878 12.17-1.728 17.598-.813 5.198-1.581 10.108-1.581 15.5 0 9.435 2.525 18.34 7.996 28.111 9.615 16.654 26.476 25.826 47.475 25.826 2.776 0 5.238-.163 7.269-.375 2.269 9.656 1.878 19.522-3.949 27.932l12.328 8.544c9.666-13.947 9.33-29.728 5.028-44.122 4.742-6.495 12.355-19.379 12.355-35.197 0-8.737-2.319-17.185-6.894-25.107-4.617-7.999-11.797-15.866-21.337-23.383l-9.283 11.782c8.037 6.333 13.969 12.759 17.63 19.101 3.24 5.613 4.884 11.537 4.884 17.607 0 6.823-2.052 13.032-4.453 17.982-8.197-15.782-18.605-27.295-19.514-28.287l-11.055 10.14c.212.231 11.45 12.645 18.949 28.347-.628.022-1.278.037-1.958.037-10.904 0-25.739-3.179-34.436-18.24-5.35-9.556-6.035-16.081-6.035-20.697 0-4.226.649-8.376 1.401-13.182.894-5.715 1.907-12.192 1.907-19.917 0-4.259-.311-8.56-.941-12.962 6.272 2.923 14.137 6.944 21.977 11.895l8.008-12.684c-9.782-6.177-19.493-10.944-25.917-13.855-11.91-5.398-13.487-5.398-14.428-5.398h-9.919l2.703 9.543c2.367 8.361 3.518 16.035 3.518 23.461z"/><path d="m40.785 94.303 5.879-3.452c13.722-8.057 23.237-8.943 32.44-9.8 10.723-.998 21.81-2.03 34.747-14.622l.073-.071c8.227-8.227 12.575-18.8 12.575-30.575 0-13.987-6.09-25.246-6.349-25.718l-1.05-1.915-1.916-1.051c-.472-.259-11.729-6.348-25.717-6.348-11.776 0-22.35 4.349-30.576 12.576-4.318 4.318-8.217 9.912-11.589 16.626l13.404 6.731c2.651-5.278 5.609-9.569 8.792-12.751 5.429-5.429 12.147-8.182 19.969-8.182 7.096 0 13.384 2.237 16.476 3.556 1.324 3.104 3.558 9.387 3.558 16.478 0 7.804-2.741 14.51-8.147 19.934-9.122 8.862-15.695 9.474-25.639 10.4-7.05.656-15.336 1.427-25.592 5.416 1.088-6.309 2.782-14.155 5.356-21.972l-14.249-4.693c-2.67 8.108-4.799 17.104-6.328 26.741-2.256 14.208-1.802 14.835-.112 17.17z"/><path d="m98.5 139.25h15c0-12.407 10.094-22.5 22.5-22.5s22.5 10.093 22.5 22.5-10.094 22.5-22.5 22.5h-58.572v15h58.572c20.678 0 37.5-16.822 37.5-37.5s-16.822-37.5-37.5-37.5-37.5 16.823-37.5 37.5z"/><path d="m0 161.75h62.428v15h-62.428z"/></g><g><path d="m314.814 447.979h15v15h-15z" fill="#fff" transform="matrix(.866 -.5 .5 .866 -184.559 222.182)"/></g></g></svg>